Coordinates
version=1
nRows=19
nColumns=34
inDegrees=yes

Units are S.I. units (second, meters, Newtons, ...)
If the header above contains a line with 'inDegrees', this indicates whether rotational values are in degrees (yes) or radians (no).

endheader
time	pelvis_tilt	pelvis_list	pelvis_rotation	pelvis_tx	pelvis_ty	pelvis_tz	hip_flexion_r	hip_adduction_r	hip_rotation_r	knee_angle_r	ankle_angle_r	subtalar_angle_r	mtp_angle_r	hip_flexion_l	hip_adduction_l	hip_rotation_l	knee_angle_l	ankle_angle_l	subtalar_angle_l	mtp_angle_l	lumbar_extension	lumbar_bending	lumbar_rotation	arm_flex_r	arm_add_r	arm_rot_r	elbow_flex_r	pro_sup_r	arm_flex_l	arm_add_l	arm_rot_l	elbow_flex_l	pro_sup_l
      2.16666670	     -9.13898625	      4.44813543	    -15.12214465	      1.80280392	      0.86593180	     -0.20029213	     16.23882671	     -6.84996250	      4.86275527	      8.97498748	      4.42581537	    -12.70635268	      0.00000000	      7.02629052	      1.01028297	    -12.92046572	      5.59603972	      5.61028658	    -14.05287396	      0.00000000	     -0.33290676	      0.77687540	    -12.18626489	     12.22854387	     -6.60274680	     38.31855386	     85.75170334	     97.60231253	      7.24148851	     -8.55786909	     24.18718458	     70.71916304	     79.54206304
      2.18333330	     -9.41406803	      4.39274680	    -13.82358910	      1.80176668	      0.86983690	     -0.20048938	     16.28562685	     -6.97311324	      4.00779298	      9.09100703	      4.32655584	    -13.10564620	      0.00000000	      7.64439089	      0.87105773	    -11.69211505	      5.93351984	      5.66182401	    -14.13407533	      0.00000000	     -0.49692116	      0.97303820	    -11.23637431	     11.26380821	     -6.19597676	     36.63800438	     87.01352338	     97.58865205	      7.01551429	     -8.40346232	     22.59385338	     71.72982284	     79.81074984
      2.20000000	     -9.44118090	      4.33096468	    -12.79644683	      1.80076127	      0.87383697	     -0.19994608	     16.13034618	     -7.07987096	      3.31307811	      9.18636715	      4.37069107	    -13.16693503	      0.00000000	      7.76939306	      0.79399121	    -10.87970477	      5.81759334	      5.23762035	    -13.83012867	      0.00000000	     -0.91147254	      1.02462893	    -10.09151340	     10.70729534	     -5.68159577	     35.93549285	     87.58408073	     97.58475842	      7.08264700	     -8.37325297	     21.44865746	     72.66971321	     80.13084690
      2.21666670	     -9.52371717	      4.24330147	    -11.86779868	      1.79972352	      0.87603590	     -0.19894701	     16.05489985	     -7.08083015	      2.76606043	      9.25184669	      4.36598265	    -13.32050470	      0.00000000	      7.96362743	      0.64609007	    -10.27165402	      5.73313241	      4.85673853	    -13.32534602	      0.00000000	     -1.11540810	      1.06706265	     -9.04949123	     10.70168316	     -5.09660588	     36.17802347	     87.56365930	     97.58353417	      7.49331390	     -8.43330575	     21.05433825	     73.10556768	     80.17016866
      2.23333330	     -9.23820515	      4.04286918	    -10.91509822	      1.79863734	      0.87638130	     -0.19799385	     15.44543139	     -7.06812246	      1.77304459	      9.09725003	      4.30024617	    -13.05882610	      0.00000000	      7.78513771	      0.45982518	     -9.61991536	      5.72206421	      4.83294694	    -12.82168505	      0.00000000	     -1.99081381	      1.11906651	     -8.11819705	     10.96328957	     -4.66392482	     35.73845153	     87.96850562	     97.39126041	      7.69225181	     -8.36082577	     20.45306307	     74.94508106	     80.42362031
      2.25000000	     -9.31139402	      3.96372989	    -10.11799061	      1.79762622	      0.87564733	     -0.19706912	     15.45846812	     -7.01131889	      1.22527600	      9.23325765	      4.34639099	    -13.26407111	      0.00000000	      7.98005767	      0.30474634	     -9.20939137	      5.61926886	      4.46076634	    -12.32711169	      0.00000000	     -2.25652832	      1.17101291	     -7.21729261	     11.74789952	     -4.53867847	     35.67240411	     87.85241192	     97.34060596	      8.07786329	     -8.01078341	     20.33134994	     75.52316690	     80.46424687
      2.26666670	     -8.87811519	      3.74156346	     -9.35361212	      1.79681653	      0.87694467	     -0.19651330	     14.75349531	     -6.89164685	      0.42708625	      9.11473932	      4.37632275	    -13.13172382	      0.00000000	      7.68124860	      0.04811045	     -8.92579132	      5.67127615	      4.62714073	    -11.59631128	      0.00000000	     -3.40176421	      1.14745397	     -6.45117189	     12.75626874	     -4.65483054	     35.07489501	     87.92561144	     96.94725567	      8.30299486	     -7.83178466	     20.41144546	     77.45677460	     80.71706077
      2.28333330	     -8.91626708	      3.67462570	     -8.63206198	      1.79604575	      0.87835778	     -0.19650870	     14.69417167	     -6.84147257	     -0.03401094	      9.15693425	      4.46490995	    -13.35402853	      0.00000000	      7.91897128	     -0.12382264	     -8.68171352	      5.71185706	      4.20363008	    -11.08360455	      0.00000000	     -3.66739769	      1.13841742	     -5.83807288	     13.77075182	     -4.96842482	     34.71016407	     87.78816681	     96.85895580	      8.47531322	     -7.36899081	     20.42831400	     77.90848921	     80.75612184
      2.30000000	     -8.36915054	      3.44652454	     -7.91697682	      1.79486472	      0.88063305	     -0.19662602	     13.77673832	     -6.70432820	     -0.73282682	      8.83344694	      4.48643730	    -13.32276862	      0.00000000	      7.55849579	     -0.41341353	     -8.71184946	      5.86671528	      4.36773231	     -9.82704949	      0.00000000	     -4.95281926	      1.07180824	     -5.31142638	     14.58754939	     -5.09809593	     34.02751341	     87.84980332	     96.22885054	      8.69755435	     -7.25471233	     20.76266983	     79.35570800	     81.06456364
      2.31666670	     -8.35060327	      3.35350908	     -7.27538052	      1.79371034	      0.88115045	     -0.19717554	     13.59563236	     -6.63976800	     -1.27846488	      8.70117414	      4.45244867	    -13.52836805	      0.00000000	      7.83486344	     -0.61101347	     -8.63133982	      6.09201867	      4.13626906	     -9.30659190	      0.00000000	     -5.38328616	      0.98135910	     -4.79959167	     15.18466348	     -5.32867424	     33.87647588	     87.67019211	     96.05682156	      8.85354080	     -6.86743162	     20.93595297	     79.76443820	     81.15083783
      2.33333330	     -8.33173091	      3.27945078	     -6.65906808	      1.79281243	      0.88140995	     -0.19806744	     13.37463898	     -6.61570656	     -1.75844864	      8.45639719	      4.41209019	    -13.71944307	      0.00000000	      8.10258809	     -0.73981779	     -8.59680101	      6.30379886	      3.90005172	     -8.76452503	      0.00000000	     -5.84790300	      0.90907279	     -4.49536757	     15.65183978	     -5.48090090	     33.74025706	     87.54889062	     95.92936644	      8.93562337	     -6.53146194	     21.23301873	     80.16635298	     81.22645124
      2.35000000	     -8.26288480	      3.24513028	     -6.13772307	      1.79232804	      0.88144352	     -0.19888147	     13.09977276	     -6.64397977	     -2.23576629	      8.19990292	      4.35434483	    -13.90466863	      0.00000000	      8.31270725	     -0.80601513	     -8.59089018	      6.55497923	      3.73166192	     -8.28666835	      0.00000000	     -6.17674237	      0.83496954	     -4.18069978	     16.01847392	     -5.50602781	     33.66609175	     87.48985453	     95.83585185	      8.90734142	     -6.25267068	     21.55900201	     80.53109399	     81.29203872
      2.36666670	     -7.86897011	      3.07710543	     -5.55913387	      1.79166247	      0.88214314	     -0.19956686	     12.27209355	     -6.56005402	     -2.84290910	      7.61242454	      4.00329207	    -14.05803154	      0.00000000	      8.14793423	     -0.97449220	     -8.87059876	      6.84270584	      4.48302389	     -6.83404941	      0.00000000	     -7.23872938	      0.87760747	     -4.10479918	     16.25207572	     -5.50205168	     33.53869573	     87.56781986	     95.36778715	      9.08028190	     -6.59010687	     22.75816501	     81.53858401	     81.61443082
      2.38333330	     -7.85900484	      3.08000563	     -5.18333143	      1.79044010	      0.88250743	     -0.19962852	     12.16661969	     -6.59680026	     -3.13155249	      7.44910807	      4.14039680	    -14.26114558	      0.00000000	      8.39044341	     -0.97931688	     -8.95514275	      7.06292283	      4.26938350	     -6.52583778	      0.00000000	     -7.59163926	      0.71592154	     -3.80533421	     16.36365243	     -5.50336444	     33.58930694	     87.41905352	     95.29611833	      9.04573635	     -6.32825216	     22.95083592	     81.65711652	     81.66418024
      2.40000000	     -7.83762704	      3.03362966	     -4.79409042	      1.78875884	      0.88379075	     -0.19948541	     12.02443376	     -6.58669382	     -3.49822491	      7.21902145	      4.18789167	    -14.43990193	      0.00000000	      8.65052559	     -1.03889948	     -8.99799779	      7.29676459	      4.22793398	     -6.08934284	      0.00000000	     -8.06173832	      0.63009525	     -3.56414365	     16.42885355	     -5.44361062	     33.68722100	     87.13764163	     95.20748057	      9.13739003	     -6.10456606	     23.32604943	     81.86311074	     81.74440393
      2.41666670	     -7.54889238	      2.88275305	     -4.42189382	      1.78723338	      0.88548488	     -0.19926511	     11.47936663	     -6.45716143	     -3.96221015	      6.78704091	      3.98842935	    -14.50951739	      0.00000000	      8.59186605	     -1.22314960	     -9.35337367	      7.50042072	      5.02541011	     -4.59493422	      0.00000000	     -8.85358425	      0.65792220	     -3.49615686	     16.68077460	     -5.34920386	     33.84649773	     86.45239428	     94.79538552	      9.58140305	     -6.63832016	     24.79860780	     82.28897093	     82.12414731
      2.43333330	     -7.56731058	      2.86861214	     -4.17358265	      1.78628882	      0.88576814	     -0.19929867	     11.45108274	     -6.44906112	     -4.10728526	      6.63502398	      4.09062655	    -14.62536114	      0.00000000	      8.81094659	     -1.24565316	     -9.44670353	      7.58185500	      4.85738710	     -4.32238624	      0.00000000	     -9.22774192	      0.53125342	     -3.32581569	     16.50436682	     -5.17202416	     34.05390099	     86.32912330	     94.73230855	      9.69967184	     -6.40449849	     24.98075500	     82.43168079	     82.18483696
      2.45000000	     -7.53876729	      2.81092749	     -3.92262866	      1.78569409	      0.88570018	     -0.19959278	     11.34317790	     -6.40958235	     -4.38504515	      6.48254134	      4.04401538	    -14.72432561	      0.00000000	      8.98915922	     -1.31860329	     -9.52306590	      7.72565625	      4.80842917	     -3.94767342	      0.00000000	     -9.63556230	      0.43026306	     -3.14639254	     16.28647996	     -5.04983812	     34.31440635	     86.14690175	     94.65220900	      9.88194792	     -6.31699783	     25.30470492	     82.73412985	     82.28060760
      2.46666670	     -7.47951146	      2.73364797	     -3.70931576	      1.78532606	      0.88558558	     -0.20019420	     11.16541980	     -6.35334691	     -4.63061879	      6.29137601	      3.90174427	    -14.75783992	      0.00000000	      9.10098884	     -1.40362830	     -9.65955673	      7.87028658	      4.83404204	     -3.55737729	      0.00000000	    -10.05065631	      0.35647083	     -3.03199220	     16.00930475	     -4.90991101	     34.65208814	     85.99876410	     94.56288161	     10.07871390	     -6.35452223	     25.75165029	     83.14785878	     82.40494163
